<svg xmlns="http://www.w3.org/2000/svg" viewBox="0 0 400 260" font-family="PingFang TC, Noto Sans TC, sans-serif" stroke-linecap="round" stroke-linejoin="round"><rect width="400" height="260" rx="18" fill="#fffdf7"/>
<g stroke="#2b1d14" stroke-width="3" fill="#f6e3cf"><path d="M30,190 C20,100 70,56 112,56 C154,56 190,100 180,190 Z"/><path d="M222,190 C212,100 262,56 304,56 C346,56 382,100 372,190 Z"/></g>
<text x="105" y="18" font-size="15" font-weight="700" fill="#2b1d14" text-anchor="middle">TMS</text><text x="297" y="18" font-size="15" font-weight="700" fill="#2b1d14" text-anchor="middle">tDCS</text>
<g stroke="#2b1d14" stroke-width="3" fill="#9ccaa0"><circle cx="87" cy="42" r="14"/><circle cx="119" cy="42" r="14"/></g>
<g stroke="#4a86a6" stroke-width="2.5" fill="none"><path d="M82,66 C86,74 84,78 88,84 M104,64 C108,74 106,78 110,86 M124,66 C128,74 126,78 130,84"/></g>
<ellipse cx="108" cy="92" rx="26" ry="9" fill="#e8a3b6" opacity=".8"/>
<rect x="258" y="52" width="34" height="14" rx="6" fill="#e08a4f" stroke="#2b1d14" stroke-width="2.5"/><rect x="316" y="52" width="34" height="14" rx="6" fill="#6fa8c7" stroke="#2b1d14" stroke-width="2.5"/>
<text x="275" y="46" font-size="15" font-weight="700" fill="#c0504d" text-anchor="middle">＋</text><text x="333" y="46" font-size="15" font-weight="700" fill="#4a86a6" text-anchor="middle">－</text>
<path d="M275,70 C285,100 320,100 333,70" fill="none" stroke="#2b1d14" stroke-width="2" stroke-dasharray="4 3"/>
<g font-size="12" fill="#2b1d14" text-anchor="middle"><text x="105" y="212">磁場在皮質產生電流</text><text x="105" y="228">暫時干擾該區（單次或重複）</text>
<text x="297" y="212">微弱電流調整興奮度</text><text x="297" y="228">陽極＋提高；陰極－降低</text></g>
<text x="200" y="250" font-size="11" fill="#6b5a4a" text-anchor="middle">兩者都不是把腦區「關掉」，效果受位置、時間、強度影響</text>
</svg>
